# xmcd CD database file
#
# Track frame offsets:
#	150
#	20363
#	37100
#	57518
#	93397
#	105864
#	167785
#	188149
#
# Disc length: 3192 seconds
#
# Revision: 1
# Processed by: cddbd v1.5.1PL0 Copyright (c) Steve Scherf et al.
# Submitted via: CDex 1.51
#
DISCID=600c7608
DTITLE=Ralph Zurmühle - Communion
DYEAR=2002
DGENRE=New Age
TTITLE0=A Fairy Tale
TTITLE1=Sublime Moments (in an ordinary day)
TTITLE2=The Train
TTITLE3=The Ocean Beyond Time
TTITLE4=Alone
TTITLE5=Communion of Love Quadosh, Quadosh, Quadosh Adonai Tzeba'oth
TTITLE6=Communion of Love Ehyeh Asher Ehyeh
TTITLE7=Communion of Love Shalom (for Eckard)
EXTD=YEAR: 2002
EXTT0=
EXTT1=
EXTT2=
EXTT3=
EXTT4=
EXTT5=
EXTT6=
EXTT7=
PLAYORDER=
